<svg xmlns:svg="http://www.w3.org/2000/svg" xmlns="http://www.w3.org/2000/svg" version="1.1" xml:space="preserve" viewBox="0 0 285.2 113"><style>.s0{fill:#0DB47E;}</style><style>.s0{fill:#0DB47E;}</style><g transform="matrix(0.3,0,0,-0.3,-61.7613,179.6367)"><path d="m1122.1 390.7-0.7 0c-17.1 0-31.7 12.9-34 30-7.3 53.5-47.9 96.3-101 106.3-3.5 0.7-6-0.9-7.2-1.9-1.2-1-3.2-3.2-3.2-6.8 0-4.2 2.9-7.8 6.8-8.6 51-9.5 88.1-54.1 88.1-106.1 0-7.2-5.8-13-13-13-7.2 0-13 5.8-13 13 0 39.5-28.1 73.3-66.8 80.5-16.3 3-28.1 17.4-28.1 34.1 0 10.4 4.6 20.2 12.6 26.8 8 6.6 18.4 9.3 28.6 7.4 64.1-12.1 113.1-63.7 121.9-128.3 0.6-4.4 4.1-7.5 8.3-7.5l0.7 0c2.5 0 4.9 1.1 6.6 3 0.9 1.1 2.4 3.3 2 6.4-11.1 83.6-83.2 146.7-167.7 146.7-7.2 0-13 5.8-13 13 0 7.2 5.8 13 13 13 97.4 0 180.6-72.8 193.4-169.3 1.3-9.7-1.7-19.6-8.2-27-6.6-7.5-16.1-11.8-26.1-11.8" fill="#0DB47E"/><path d="m273.3 463.4-67.4 0 0-174.4 49.6 0 0 50.8 14 0 22.4-50.8 53.2 0-30.1 60c7.8 4.2 14 10.1 18.5 17.6 4.5 7.5 6.8 16.8 6.8 27.8l0 12.8c0 9.2-1.5 17.3-4.6 24.3-3 7-7.4 12.9-13.2 17.6-5.8 4.7-12.8 8.3-21.1 10.8-8.3 2.4-17.7 3.7-28.1 3.7m-17.8-38 17.1 0c5.8 0 10.2-1.5 13.4-4.4 3.2-2.9 4.8-7 4.8-12.1l0-16.5c0-5.2-1.6-9.3-4.8-12.2-3.2-2.9-7.6-4.4-13.4-4.4l-17.1 0 0 49.6zm156.9 38-49.6 0 0-174.4 49.6 0 0 174.4zm133.1-171.2-3.9 38.8c-1.3-0.3-3-0.6-5.1-1.2-2.1-0.5-4.5-1-7.1-1.4-2.7-0.4-5.6-0.8-8.7-1.2-3.1-0.3-6.4-0.5-9.7-0.5-8.2 0-14.6 1.9-19.3 5.9-4.7 3.9-7.1 9.6-7.1 16.9l0 52.2c0 3.8 0.6 7.1 1.9 10.1 1.3 3 3 5.5 5.3 7.5 2.2 2 4.9 3.6 7.9 4.6 3.1 1.1 6.4 1.6 10 1.6 3.4 0 6.6-0.2 9.9-0.5 3.2-0.3 6.2-0.7 8.8-1.2 2.7-0.4 4.9-0.9 6.8-1.3 1.9-0.4 3.1-0.8 3.7-1l5.2 38.3c-1.2 0.4-3.1 1-5.5 1.7-2.5 0.7-5.5 1.4-8.9 2.1-3.5 0.7-7.4 1.3-11.7 1.7-4.3 0.5-8.9 0.7-13.8 0.7-9.9 0-19-1.3-27.5-3.9-8.5-2.6-15.8-6.4-22.1-11.4-6.3-5-11.2-11.3-14.7-18.8-3.6-7.5-5.3-16.2-5.3-26.1l0-60.2c0-9.6 1.7-18.1 5.1-25.5 3.4-7.4 8.1-13.6 14.2-18.5 6.1-5 13.2-8.8 21.5-11.3 8.3-2.6 17.3-3.9 27-3.9 8.6 0 16.7 0.6 24.3 1.7 7.6 1.2 13.9 2.5 19 4.1m116.4-3.2 53.1 0-46.4 174.4-70.3 0-46.5-174.4 52.9 0 7.2 33 42.8 0 7.2-33zm-43.3 70.3 14.7 67 14.8-67-29.5 0zm111.3 104.1 0-174.4 67.4 0c10.8 0 20.5 1.1 29.1 3.4 8.6 2.3 15.9 5.7 21.8 10.4 6 4.6 10.5 10.5 13.7 17.5 3.1 7 4.7 15.4 4.7 25l0 60c0 9.2-1.6 17.4-4.7 24.6-3.1 7.2-7.7 13.3-13.7 18.2-6 4.9-13.2 8.7-21.8 11.3-8.6 2.6-18.3 3.9-29.1 3.9l-67.4 0zm86.7-68.3 0-50.1c0-5.6-1.7-10-5.1-13.2-3.4-3.2-8.5-4.8-15.4-4.8l-16.6 0 0 98.4 16.6 0c4.6 0 8.2-0.9 10.9-2.8 2.7-1.9 4.8-4.3 6.2-7.3 1.4-3 2.3-6.2 2.8-9.8 0.4-3.6 0.6-7 0.6-10.4m67.2 12 0-61.8c0-9.6 1.6-18.1 4.8-25.4 3.2-7.3 7.8-13.4 13.7-18.4 6-5 13.3-8.7 22-11.3 8.7-2.5 18.6-3.8 29.6-3.8 11.1 0 21 1.3 29.6 3.8 8.7 2.5 16 6.3 22 11.3 6 5 10.6 11.1 13.8 18.4 3.2 7.3 4.8 15.8 4.8 25.4l0 61.8c0 9.5-1.6 18-4.8 25.3-3.2 7.3-7.8 13.5-13.8 18.4-6 4.9-13.3 8.7-22 11.3-8.7 2.6-18.5 3.9-29.6 3.9-11.1 0-21-1.3-29.6-3.9-8.7-2.6-16-6.3-22-11.3-6-4.9-10.5-11.1-13.7-18.4-3.2-7.3-4.8-15.8-4.8-25.3m50.1-64.5 0 67.2c0 5.7 1.7 10.2 5.2 13.6 3.4 3.4 8.4 5.1 14.8 5.1 6.4 0 11.4-1.7 14.9-5.1 3.5-3.4 5.2-7.9 5.2-13.6l0-67.2c0-5.7-1.7-10.2-5.2-13.7-3.5-3.5-8.4-5.2-14.9-5.2-6.4 0-11.4 1.7-14.8 5.2-3.4 3.5-5.2 8.1-5.2 13.7" fill="#0DB47E"/><path d="m1047.7 370.8 0-9.7 4.3 0 0 9.7 3.5 0 0 3.9-11.3 0 0-3.9 3.5 0zm20.2-1.9 0-7.8 4.1 0 0 13.7-5 0-2.6-7-2.5 7-5.1 0 0-13.7 4.1 0 0 7.8 2.2-6 2.8 0 2.2 6.1" fill="#0DB47E"/><path d="m230.6 243.4 0 1.5c0 6.8-5.8 9.7-12.5 9.7l-12.2 0 0-31.7 6.8 0 0 10.4 5.2 0 5.7-10.4 7.4 0-6.8 11.5c3.8 1.4 6.4 4.3 6.4 8.9m-12.6 6c3.7 0 5.8-1.8 5.8-5l0-1.2c0-3.2-2.2-5-5.8-5l-5.4 0 0 11.1 5.4 0zm34.4-26.5 22 0 0 5.5-15.1 0 0 7.8 14 0 0 5.2-14 0 0 7.7 14.5 0 0 5.5-21.4 0 0-31.7zm69.9 0 6.6 0 0 31.7-7.9 0-8.8-19.8-8.7 19.8-7.9 0 0-31.7 6.5 0 0 21.7 8.1-17.4 4 0 8.1 17.4 0-21.7zm28.8 10.6c0-7.4 5.8-11.2 13.6-11.2 7.9 0 13.6 3.8 13.6 11.2l0 10.6c0 7.3-5.7 11.2-13.6 11.2-7.8 0-13.6-3.8-13.6-11.2l0-10.6zm7 10.6c0 3.4 2.4 5.5 6.6 5.5 4.4 0 6.6-2.5 6.6-6l0-9.6c0-3.6-2.3-6.1-6.6-6.1-4.4 0-6.6 2.5-6.6 6.1l0 10zm48.4-21.1 7 0 0 26.1 9.4 0 0 5.6-25.8 0 0-5.6 9.4 0 0-26.1zm36.7 0 22 0 0 5.5-15.1 0 0 7.8 14 0 0 5.2-14 0 0 7.7 14.5 0 0 5.5-21.4 0 0-31.7zm72.4 0 12.3 0c7.3 0 13.1 3.1 13.3 10 0.1 1.8 0.1 3.6 0.1 5.5l0 5.4c0 6.7-5.7 10.8-13.4 10.8l-12.3 0 0-31.7zm18.8 10.6c0-3.4-2.4-5.3-6.9-5.3l-5.1 0 0 20.9 5.1 0c4.7 0 6.9-2.9 6.9-6.1l0-9.6zm56.2-10.6-10.4 31.7-9.9 0-10.4-31.7 7.2 0 2.2 6.9 11.8 0 2.2-6.9 7.2 0zm-15.3 26.6 4.7-14.6-9.4 0 4.7 14.6zm39.7-26.6 7 0 0 26.1 9.4 0 0 5.6-25.8 0 0-5.6 9.4 0 0-26.1zm62 0-10.4 31.7-9.9 0-10.4-31.7 7.2 0 2.2 6.9 11.8 0 2.2-6.9 7.2 0zm-15.3 26.6 4.7-14.6-9.4 0 4.7 14.6zm83.8-18.1c0 5.2-2.6 7.9-7.8 9.3-6 1.7-8.2 2-8.2 5.2 0 2.3 2.1 3.6 5.8 3.6 3.1 0 6.1-0.6 7.9-1.1l0.8 5.5c-1.6 0.4-4.8 1.2-9.6 1.2-7.3 0-11.6-3.9-11.6-9.2 0-4.7 2.1-7.7 6.2-8.8 6.3-1.7 9.7-2.3 9.7-5.7 0-3-2.7-3.6-6.5-3.6-3.5 0-6.9 0.8-8.7 1.3l-0.9-5.4c1.9-0.7 5.7-1.5 10.6-1.5 8.1 0 12.3 3.1 12.3 9.2m39.5 23.1-6.9-14.2-6.9 14.2-7.2 0 10.7-20.6 0-11.1 6.9 0 0 11.1 10.7 20.6-7.2 0zm48.5-23.1c0 5.2-2.6 7.9-7.8 9.3-6 1.7-8.2 2-8.2 5.2 0 2.3 2.1 3.6 5.8 3.6 3.1 0 6.1-0.6 7.9-1.1l0.8 5.5c-1.7 0.4-4.8 1.2-9.6 1.2-7.3 0-11.6-3.9-11.6-9.2 0-4.7 2.1-7.7 6.2-8.8 6.3-1.7 9.7-2.3 9.7-5.7 0-3-2.7-3.6-6.6-3.6-3.5 0-6.9 0.8-8.7 1.3l-0.9-5.4c1.9-0.7 5.7-1.5 10.6-1.5 8 0 12.3 3.1 12.3 9.2m27.6-8.6 7 0 0 26.1 9.4 0 0 5.6-25.8 0 0-5.6 9.4 0 0-26.1zm36.7 0 22 0 0 5.5-15.1 0 0 7.8 14 0 0 5.2-14 0 0 7.7 14.5 0 0 5.5-21.4 0 0-31.7zm69.9 0 6.6 0 0 31.7-7.9 0-8.8-19.8-8.7 19.8-7.9 0 0-31.7 6.6 0 0 21.7 8.1-17.4 4 0 8.1 17.4 0-21.7zm51.1 8.6c0 5.2-2.6 7.9-7.8 9.3-6 1.7-8.2 2-8.2 5.2 0 2.3 2.1 3.6 5.8 3.6 3.1 0 6.1-0.6 7.9-1.1l0.8 5.5c-1.6 0.4-4.8 1.2-9.6 1.2-7.3 0-11.6-3.9-11.6-9.2 0-4.7 2.1-7.7 6.2-8.8 6.3-1.7 9.7-2.3 9.7-5.7 0-3-2.7-3.6-6.5-3.6-3.5 0-6.9 0.8-8.7 1.3l-0.9-5.4c1.9-0.7 5.7-1.5 10.5-1.5 8.1 0 12.3 3.1 12.3 9.2" fill="#fff"/></g></svg>
